<mxfile host="app.diagrams.net" modified="2024-07-10T07:45:28.521Z" agent="Mozilla/5.0 (Windows NT 10.0; Win64; x64) AppleWebKit/537.36 (KHTML, like Gecko) Chrome/126.0.0.0 Safari/537.36" etag="dIU-Kb8qt-E0_JdcedDI" version="24.6.4" type="github">
  <diagram id="C5RBs43oDa-KdzZeNtuy" name="Page-1">
    <mxGraphModel dx="787" dy="1242" grid="1" gridSize="10" guides="1" tooltips="1" connect="1" arrows="1" fold="1" page="1" pageScale="1" pageWidth="827" pageHeight="1169" math="0" shadow="0">
      <root>
        <mxCell id="WIyWlLk6GJQsqaUBKTNV-0" />
        <mxCell id="WIyWlLk6GJQsqaUBKTNV-1" parent="WIyWlLk6GJQsqaUBKTNV-0" />
        <mxCell id="SMtssAJC2grvRH-AnkQw-5" value="" style="edgeStyle=orthogonalEdgeStyle;rounded=0;orthogonalLoop=1;jettySize=auto;html=1;" edge="1" parent="WIyWlLk6GJQsqaUBKTNV-1" source="SMtssAJC2grvRH-AnkQw-2" target="SMtssAJC2grvRH-AnkQw-4">
          <mxGeometry relative="1" as="geometry" />
        </mxCell>
        <mxCell id="SMtssAJC2grvRH-AnkQw-9" value="" style="edgeStyle=orthogonalEdgeStyle;rounded=0;orthogonalLoop=1;jettySize=auto;html=1;" edge="1" parent="WIyWlLk6GJQsqaUBKTNV-1" source="SMtssAJC2grvRH-AnkQw-4" target="SMtssAJC2grvRH-AnkQw-8">
          <mxGeometry relative="1" as="geometry" />
        </mxCell>
        <mxCell id="SMtssAJC2grvRH-AnkQw-10" value="" style="group" vertex="1" connectable="0" parent="WIyWlLk6GJQsqaUBKTNV-1">
          <mxGeometry x="80" y="170" width="160" height="60" as="geometry" />
        </mxCell>
        <mxCell id="SMtssAJC2grvRH-AnkQw-4" value="" style="whiteSpace=wrap;html=1;" vertex="1" parent="SMtssAJC2grvRH-AnkQw-10">
          <mxGeometry width="160" height="60" as="geometry" />
        </mxCell>
        <mxCell id="SMtssAJC2grvRH-AnkQw-7" value="&lt;font style=&quot;font-size: 14px;&quot;&gt;MESSAGE BOX &quot;Program is Starting&quot;&lt;/font&gt;" style="text;html=1;align=center;verticalAlign=middle;whiteSpace=wrap;rounded=0;" vertex="1" parent="SMtssAJC2grvRH-AnkQw-10">
          <mxGeometry x="10" y="16.25" width="140" height="27.5" as="geometry" />
        </mxCell>
        <mxCell id="SMtssAJC2grvRH-AnkQw-11" value="" style="group" vertex="1" connectable="0" parent="WIyWlLk6GJQsqaUBKTNV-1">
          <mxGeometry x="100" y="40" width="120" height="80" as="geometry" />
        </mxCell>
        <mxCell id="SMtssAJC2grvRH-AnkQw-2" value="" style="ellipse;whiteSpace=wrap;html=1;" vertex="1" parent="SMtssAJC2grvRH-AnkQw-11">
          <mxGeometry width="120" height="80" as="geometry" />
        </mxCell>
        <mxCell id="SMtssAJC2grvRH-AnkQw-3" value="&lt;font style=&quot;font-size: 13px;&quot;&gt;START&lt;/font&gt;" style="text;html=1;align=center;verticalAlign=middle;whiteSpace=wrap;rounded=0;" vertex="1" parent="SMtssAJC2grvRH-AnkQw-11">
          <mxGeometry x="30" y="22.5" width="60" height="35" as="geometry" />
        </mxCell>
        <mxCell id="SMtssAJC2grvRH-AnkQw-16" value="" style="group" vertex="1" connectable="0" parent="WIyWlLk6GJQsqaUBKTNV-1">
          <mxGeometry x="280" y="280" width="210" height="60" as="geometry" />
        </mxCell>
        <mxCell id="SMtssAJC2grvRH-AnkQw-8" value="" style="shape=parallelogram;perimeter=parallelogramPerimeter;whiteSpace=wrap;html=1;fixedSize=1;" vertex="1" parent="SMtssAJC2grvRH-AnkQw-16">
          <mxGeometry x="20" width="170" height="60" as="geometry" />
        </mxCell>
        <mxCell id="SMtssAJC2grvRH-AnkQw-15" value="&lt;font style=&quot;font-size: 14px;&quot;&gt;MAIN FORM&lt;/font&gt;" style="text;html=1;align=center;verticalAlign=middle;whiteSpace=wrap;rounded=0;" vertex="1" parent="SMtssAJC2grvRH-AnkQw-16">
          <mxGeometry y="15" width="210" height="30" as="geometry" />
        </mxCell>
        <mxCell id="SMtssAJC2grvRH-AnkQw-17" value="" style="whiteSpace=wrap;html=1;" vertex="1" parent="WIyWlLk6GJQsqaUBKTNV-1">
          <mxGeometry x="120" y="280" width="120" height="60" as="geometry" />
        </mxCell>
        <mxCell id="SMtssAJC2grvRH-AnkQw-18" value="" style="edgeStyle=orthogonalEdgeStyle;rounded=0;orthogonalLoop=1;jettySize=auto;html=1;" edge="1" parent="WIyWlLk6GJQsqaUBKTNV-1" source="SMtssAJC2grvRH-AnkQw-15" target="SMtssAJC2grvRH-AnkQw-17">
          <mxGeometry relative="1" as="geometry" />
        </mxCell>
        <mxCell id="SMtssAJC2grvRH-AnkQw-19" value="&lt;font style=&quot;font-size: 14px;&quot;&gt;Display Stocks Table&lt;/font&gt;" style="text;html=1;align=center;verticalAlign=middle;whiteSpace=wrap;rounded=0;" vertex="1" parent="WIyWlLk6GJQsqaUBKTNV-1">
          <mxGeometry x="125" y="295" width="110" height="30" as="geometry" />
        </mxCell>
      </root>
    </mxGraphModel>
  </diagram>
</mxfile>
